<svg xmlns="http://www.w3.org/2000/svg" xmlns:xlink="http://www.w3.org/1999/xlink" fill="none" version="1.1" width="95" height="95" viewBox="0 0 95 95"><defs><clipPath id="master_svg0_1_0418"><rect x="0" y="0" width="95" height="95" rx="0"/></clipPath></defs><g clip-path="url(#master_svg0_1_0418)"><path d="M29.2138655,49.531982703125L32.8227505,49.531982703125C35.4853495,49.531982703125,37.6376915,47.379638703125,37.6376915,44.717044703125C37.6376915,42.054446703125,35.4853455,39.902105703125,32.8227505,39.902105703125L29.2138655,39.902105703125C26.5512655,39.902105703125,24.398923500000002,42.054446703125,24.398923500000002,44.717044703125C24.398923500000002,47.379638703125,26.5512695,49.531982703125,29.2138655,49.531982703125ZM45.6904255,49.531982703125L49.2993165,49.531982703125C51.9619145,49.531982703125,54.1142575,47.379638703125,54.1142575,44.717044703125C54.1142575,42.054446703125,51.9619145,39.902105703125,49.2993165,39.902105703125L45.6904295,39.902105703125C43.0278325,39.902105703125,40.8754885,42.054446703125,40.8754885,44.717044703125C40.8847655,47.379646703125,43.0371095,49.531982703125,45.6904255,49.531982703125ZM62.1762695,49.531982703125L65.7851565,49.531982703125C68.4477575,49.531982703125,70.6000975,47.379638703125,70.6000975,44.717044703125C70.6000975,42.054446703125,68.4477575,39.902105703125,65.7851565,39.902105703125L62.1762695,39.902105703125C59.5136715,39.902105703125,57.3613245,42.054446703125,57.3613245,44.717044703125C57.3706015,47.379646703125,59.5229455,49.531982703125,62.1762695,49.531982703125ZM29.2138655,67.984618703125L32.8227505,67.984618703125C35.4853495,67.984618703125,37.6376915,65.83227570312499,37.6376915,63.169677703125C37.6376915,60.507076703125,35.4853495,58.354736703125,32.8227505,58.354736703125L29.2138655,58.354736703125C26.5512655,58.354736703125,24.398923500000002,60.507083703125,24.398923500000002,63.169681703125C24.398923500000002,65.83227970312501,26.5512695,67.984622703125,29.2138655,67.984618703125ZM45.6904255,67.984618703125L49.2993165,67.984618703125C51.9619145,67.984618703125,54.1142575,65.83227570312499,54.1142575,63.169677703125C54.1142575,60.507076703125,51.9619065,58.354736703125,49.2993165,58.354736703125L45.6904295,58.354736703125C43.0278325,58.354736703125,40.8754885,60.507083703125,40.8754885,63.169681703125C40.8847655,65.83227970312501,43.0371095,67.984622703125,45.6904255,67.984618703125ZM62.1762695,67.984618703125L65.7851565,67.984618703125C68.4477575,67.984618703125,70.6000975,65.83227570312499,70.6000975,63.169677703125C70.6000975,60.507076703125,68.4477505,58.354736703125,65.78515250000001,58.354736703125L62.1762615,58.354736703125C59.5136645,58.354736703125,57.3613205,60.507083703125,57.3613205,63.169681703125C57.3705945,65.83227970312501,59.5229375,67.984622703125,62.1762695,67.984618703125ZM81.1948245,13.916260203124999L76.3798755,13.916260203124999L76.3798755,11.513428003125C76.3798755,10.186767503125001,75.3037105,9.110595703125,73.9770435,9.110595703125L69.1621015,9.110595703125C67.8354415,9.110595703125,66.7592655,10.186767503125001,66.7592655,11.513428003125L66.7592655,13.916260203124999L28.2582915,13.916260203124999L28.2582915,11.513428003125C28.2582915,10.186767503125001,27.1821175,9.110595703125,25.8554595,9.110595703125L21.040519500000002,9.110595703125C19.713859499999998,9.110595703125,18.6376886,10.186767503125001,18.6376886,11.513428003125L18.6376886,13.916260203124999L13.8227539,13.916260203124999C11.1601565,13.916260203124999,9.0078125,16.068604003125,9.0078125,18.731201203125L9.0078125,81.297607703125C9.0078125,83.960212703125,11.1601565,86.112556703125,13.8227539,86.112556703125L81.2040935,86.112556703125C83.8666995,86.112556703125,86.0190425,83.960212703125,86.0190425,81.297607703125L86.0190425,18.731201203125C86.0004885,16.077880403125,83.8481365,13.916260203124999,81.1948245,13.916260203124999ZM77.1220625,77.141357703125L17.6914053,77.141357703125L17.6914053,32.239013703124996L77.1220625,32.239013703124996L77.1220625,77.141357703125Z" fill="#0B273B" fill-opacity="1" style="mix-blend-mode:passthrough"/></g></svg>