<svg xmlns="http://www.w3.org/2000/svg" xmlns:xlink="http://www.w3.org/1999/xlink" fill="none" version="1.1" width="90" height="90" viewBox="0 0 90 90"><defs><clipPath id="master_svg0_1_0706"><rect x="0" y="0" width="90" height="90" rx="0"/></clipPath></defs><g clip-path="url(#master_svg0_1_0706)"><path d="M35.690117,71.379295C32.511574,71.379295,29.394762,70.968338,26.377499,70.153671C24.825596,69.734657,23.300032,69.208839,21.805952,68.577209C17.556885,66.780983,13.739848,64.210297,10.463081,60.935123C7.1844635,57.659008,4.6098614,53.841698,2.8105073,49.591431C0.94547027,45.186268,0,40.509579,0,35.68919C0,30.868797,0.94547027,26.192101,2.8095822,21.787868C4.6089368,17.536671,7.1835384,13.720293,10.462155,10.44418C13.738924,7.1699343,17.555958,4.5983124,21.805023,2.8020959C26.204884,0.9424305,30.875801,0,35.690117,0C40.504436,0,45.175354,0.9424305,49.574284,2.8020976C53.82428,4.5983133,57.640388,7.169003,60.917156,10.44418C64.195763,13.720294,66.771294,17.537603,68.569725,21.78787C70.433838,26.192104,71.379303,30.868797,71.379303,35.68919C71.379303,40.509586,70.433838,45.186272,68.569717,49.590508C66.770363,53.841705,64.195763,57.658081,60.917149,60.934193C57.640381,64.208443,53.824268,66.780067,49.57428,68.576271C45.17535,70.435936,40.503498,71.37838,35.690113,71.37838L35.690117,71.379295ZM35.690117,5.598598C19.071301,5.5985961,5.5507059,19.097744,5.5507059,35.68919C5.5507059,49.604416,15.061321,61.344482,27.933815,64.769791C30.409479,65.428551,33.009495,65.77977,35.690117,65.77977C49.623066,65.77977,61.378315,56.291393,64.814064,43.447277C65.476372,40.971306,65.829529,38.370632,65.829529,35.68919C65.829529,19.097748,52.308002,5.5985961,35.690117,5.598598ZM35.860336,56.921856C33.664993,56.921856,31.520746,56.587353,29.484743,55.942257C26.272533,54.924488,23.329756,53.133617,20.880827,50.663559C16.879696,46.627903,14.676065,41.261662,14.676065,35.554817C14.676065,29.847979,16.879696,24.481728,20.880827,20.446074C24.881964,16.410418,30.202311,14.187774,35.860336,14.187774C41.518356,14.187774,46.838707,16.410418,50.83984,20.446074C54.840973,24.481728,57.044605,29.847979,57.044605,35.554817C57.044605,37.736317,56.722607,39.868046,56.101284,41.894707C55.097229,45.169834,53.311501,48.170574,50.83984,50.663559C46.838707,54.699219,41.518356,56.921856,35.860336,56.921856ZM35.39315,20.104555C26.689644,20.104555,19.608793,27.246498,19.608793,36.025101C19.608793,43.132771,24.250631,49.167534,30.63726,51.207348C32.13868,51.686882,33.736523,51.945637,35.393154,51.945637C42.613113,51.945637,48.716438,47.030945,50.587345,40.344234C50.971779,38.970249,51.177513,37.52145,51.177513,36.025101C51.177513,27.246502,44.096657,20.104561,35.39315,20.104555Z" fill="#0B273B" fill-opacity="1" style="mix-blend-mode:passthrough"/><path d="M35.414211153125,36.6151037078125L34.139931589825,72.39618300781251C34.114372346125,73.1078070078125,34.335382343125,73.8061640078125,34.764935193125,74.37109800781249L34.995519523125,74.6405410078125C36.069331253125,75.75324600781249,37.798575653125,75.87827300781251,39.018598553125,74.93141900781251L45.347515453125,70.0232310078125L52.956779453125,87.68412800781249C53.625299453124995,89.2348670078125,55.412969453125,89.9449880078125,56.949520453125004,89.2701800078125L63.906475453125,86.2205580078125L64.222009453125,86.0582770078125C65.551780453125,85.27713400781249,66.091608453125,83.6151240078125,65.478082453125,82.1911280078125L57.868820453125,64.5271640078125L65.745075453125,63.2044330078125C66.902782453125,63.007896007812505,67.844238453125,62.154964007812495,68.16229245312499,61.0145110078125C68.480350453125,59.8740580078125,68.11791645312499,58.650782007812495,67.23173145312501,57.8737090078125L40.432440753125,34.4105527378125C39.549551053125,33.6389359678125,38.306164753125,33.4472705078125,37.235282453125,33.9177173078125C36.164400353125004,34.3881641078125,35.456178453125,35.4371880078125,35.414211153125,36.6151037078125Z" fill="#0B273B" fill-opacity="1" style="mix-blend-mode:passthrough" transform="matrix(0.9659258127212524,-0.258819043636322,0.258819043636322,0.9659258127212524,-7.549456760076282,9.982595295034116)"/></g></svg>