<svg xmlns="http://www.w3.org/2000/svg" xmlns:xlink="http://www.w3.org/1999/xlink" fill="none" version="1.1" width="90" height="90" viewBox="0 0 90 90"><defs><clipPath id="master_svg0_1_0332"><rect x="0" y="0" width="90" height="90" rx="0"/></clipPath></defs><g clip-path="url(#master_svg0_1_0332)"><path d="M20.462818265625,85.1290286484375C22.063133265624998,74.6355976484375,23.601570265625,73.8340306484375,23.601570265625,73.8340306484375C36.578447265625,75.9940266484375,53.014698265625,69.2946476484375,61.910637265625,58.3568346484375C73.745643265625,43.8021506484375,65.147827265625,21.6677746484375,83.145012265625,4.4327728484375C87.344078265625,0.41371484843749995,36.058132265625005,2.7537148814375,16.623755265625,24.3284016484375C2.4262542656250004,40.1037176484375,6.785630215625,58.6774676484375,9.105942465625,63.7765276484375C11.226567265625,68.3974766484375,15.085317565625,71.6346666484375,15.085317565625,71.6346666484375C12.486566565625001,80.0496746484375,12.644067765625,84.2121736484375,12.644067765625,84.2121736484375C12.284068065625,87.1681056484375,19.922818265625,88.6671676484375,20.462818265625,85.1290286484375ZM19.582506265625,65.91684764843751C27.761259265625,38.2840306484375,56.471260265625,17.5109036484375,56.471260265625,17.5109036484375C56.471260265625,17.5109036484375,34.938760265625,35.7443386484375,24.439693265625,67.8968426484375C22.822506265625,67.9334026484375,20.502192265625,66.9743426484375,19.582506265625,65.91684764843751Z" fill="#0B273B" fill-opacity="1" style="mix-blend-mode:passthrough"/><path d="M55.206298828125,66.209228515625L55.206298828125,74.376727115625L76.98348782812499,74.376727115625L76.98348782812499,66.209228515625L55.206298828125,66.209228515625ZM74.117553828125,71.654231115625L57.782550128125,71.654231115625L57.782550128125,68.934546215625L74.117553828125,68.934546215625L74.117553828125,71.654231115625Z" fill="#0A101E" fill-opacity="1" style="mix-blend-mode:passthrough"/></g></svg>